# xmcd
#
# Track frame offsets: 
#        150
#        18401
#        38868
#        61836
#        81746
#        103996
#        121340
#        139317
#        157282
#        174823
#        198208
#        216487
#
# Disc length: 3140 seconds
#
# Revision: 1
# Processed by: cddbd v1.5.2PL0 Copyright (c) Steve Scherf et al.
# Submitted via: ExactAudioCopy v0.99pb4
#
DISCID=b10c420c
DTITLE=Dntel - Early Works For Me If It Works For You
DYEAR=2009
DGENRE=IDM, Downtempo, Experimental
TTITLE0=Loneliness Is Having No One To Miss
TTITLE1=High Horses Theme
TTITLE2=Pliesex Sielking
TTITLE3=Termites In The Bathtub
TTITLE4=Fort Instructions
TTITLE5=Curtains
TTITLE6=Tybalt 60
TTITLE7=Danny Loves Experimental Electronics
TTITLE8=Sky Pointing
TTITLE9=Casuals
TTITLE10=Wind Let Me Down Again
TTITLE11=Jewel States, "The Door Borders"
EXTD=
EXTT0=
EXTT1=
EXTT2=
EXTT3=
EXTT4=
EXTT5=
EXTT6=
EXTT7=
EXTT8=
EXTT9=
EXTT10=
EXTT11=
PLAYORDER=
